<?xml version="1.0" standalone="no"?>
<!DOCTYPE svg PUBLIC "-//W3C//DTD SVG 20010904//EN"
 "http://www.w3.org/TR/2001/REC-SVG-20010904/DTD/svg10.dtd">
<svg version="1.0" xmlns="http://www.w3.org/2000/svg"
 width="512.000000pt" height="512.000000pt" viewBox="0 0 512.000000 512.000000"
 preserveAspectRatio="xMidYMid meet">
<metadata>
Created by potrace 1.14, written by Peter Selinger 2001-2017
</metadata>
<g transform="translate(0.000000,512.000000) scale(0.100000,-0.100000)"
fill="#000000" stroke="none">
<path d="M370 5100 c-172 -49 -302 -181 -354 -359 -14 -49 -16 -265 -16 -2175
0 -1738 3 -2131 14 -2178 19 -81 61 -158 120 -221 68 -72 128 -111 217 -141
l74 -25 2122 -1 c1522 0 2137 3 2175 11 181 38 353 211 387 389 7 36 10 765
11 2165 0 2325 4 2163 -61 2286 -61 115 -163 202 -283 243 l-61 21 -2140 2
c-2059 2 -2142 1 -2205 -17z"/>
</g>
</svg>
